# AST/ASF file generated using VICON BodyLanguage
# -----------------------------------------------
:version 1.10
:name VICON
:units
  mass 1.0
  length 0.45
  angle deg
:documentation
   .ast/.asf automatically generated from VICON data using
   VICON BodyBuilder and BodyLanguage model FoxedUp or BRILLIANT.MOD
:root
   order TX TY TZ RX RY RZ
   axis XYZ
   position 0 0 0  
   orientation 0 0 0 
:bonedata
  begin
     id 1 
     name lhipjoint
     direction 0.537252 -0.787203 0.302774 
     length 2.29576 
     axis 0 0 0  XYZ
  end
  begin
     id 2 
     name lfemur
     direction 0.34202 -0.939693 0  
     length 7.31114  
     axis 0 0 20  XYZ
    dof rx ry rz
    limits (-160.0 20.0)
           (-70.0 70.0)
           (-60.0 70.0)
  end
  begin
     id 3 
     name ltibia
     direction 0.34202 -0.939693 0   
     length 8.36008   
     axis 0 0 20   XYZ
    dof rx
    limits (-10.0 170.0)
  end
  begin
     id 4 
     name lfoot
     direction 0.0969116 -0.266263 0.959016   
     length 2.16704   
     axis -90 7.62852e-016 20   XYZ
    dof rx rz
    limits (-45.0 90.0)
           (-70.0 20.0)
  end
  begin
     id 5 
     name ltoes
     direction 1.53563e-011 -4.21779e-011 1   
     length 1.08338   
     axis -90 7.62852e-016 20   XYZ
    dof rx
    limits (-90.0 20.0)
  end
  begin
     id 6 
     name rhipjoint
     direction -0.588228 -0.754791 0.290308   
     length 2.39434  
     axis 0 0 0  XYZ 
  end
  begin
     id 7 
     name rfemur
     direction -0.34202 -0.939693 0   
     length 7.45207   
     axis 0 0 -20   XYZ
    dof rx ry rz
    limits (-160.0 20.0)
           (-70.0 70.0)
           (-70.0 60.0)
  end
  begin
     id 8 
     name rtibia
     direction -0.34202 -0.939693 0   
     length 8.03565   
     axis 0 0 -20   XYZ
    dof rx
    limits (-10.0 170.0)
 end
 begin
     id 9 
     name rfoot
     direction -0.107009 -0.294004 0.949795   
     length 2.11509  
     axis -90 -7.62852e-016 -20   XYZ
    dof rx rz
    limits (-45.0 90.0)
           (-20.0 70.0)
  end
  begin
     id 10 
     name rtoes
     direction -1.53533e-011 -4.22004e-011 1   
     length 1.05493   
     axis -90 -7.62852e-016 -20   XYZ
    dof rx
    limits (-90.0 20.0)
  end
  begin
     id 11 
     name lowerback
     direction -0.0115208 0.997969 -0.0626515   
     length 2.03153   
     axis 0 0 0   XYZ
    dof rx ry rz
    limits (-20.0 45.0)
           (-30.0 30.0)
           (-30.0 30.0)
  end
  begin
     id 12 
     name upperback
     direction -0.00423475 0.999974 -0.00583614   
     length 2.03619   
     axis 0 0 0   XYZ
    dof rx ry rz
    limits (-20.0 45.0)
           (-30.0 30.0)
           (-30.0 30.0)
  end
  begin
     id 13 
     name thorax
     direction 0.00289429 0.999728 0.0231573   
     length 2.03921   
     axis 0 0 0   XYZ
    dof rx ry rz
    limits (-20.0 45.0)
           (-30.0 30.0)
           (-30.0 30.0)
  end
  begin
     id 14 
     name lowerneck
     direction 0.0188995 0.987777 0.154721   
     length 1.78836   
     axis 0 0 0   XYZ
    dof rx ry rz
    limits (-20.0 45.0)
           (-30.0 30.0)
           (-30.0 30.0)
  end
  begin
     id 15 
     name upperneck
     direction -0.00612612 0.992995 -0.118   
     length 1.81789   
     axis 0 0 0   XYZ
    dof rx ry rz
    limits (-20.0 45.0)
           (-30.0 30.0)
           (-30.0 30.0)
  end
  begin
     id 16
     name head
     direction -0.00420226 0.998397 -0.0564482  
     length 1.82234  
     axis 0 0 0   XYZ
    dof rx ry rz
    limits (-20.0 45.0)
           (-30.0 30.0)
           (-30.0 30.0)
  end
  begin
     id 17 
     name lclavicle
     direction 0.916488 0.396539 0.0529676  
     length 3.51732  
     axis 0 0 0   XYZ
    dof ry rz
    limits (-20.0 10.0)
           (0.0 20.0)
  end
  begin
     id 18 
     name lhumerus
     direction 1 -4.4896e-011 8.36962e-028   
     length 5.45077   
     axis 180 -30 -90   XYZ
    dof rx ry rz
    limits (-60.0 90.0)
           (-90.0 90.0)
           (-90.0 90.0)
  end
  begin
     id 19
     name lradius
     direction 1 -4.48962e-011 3.01407e-027   
     length 3.05488   
     axis 180 -30 -90   XYZ
    dof rx
    limits (-10.0 170.0)
  end
  begin
     id 20
     name lwrist
     direction 1 -4.49002e-011 4.72961e-027   
     length 1.52744   
     axis -2.72261e-015 90 90   XYZ
    dof ry
    limits (-180.0 0.0)
 end
  begin
     id 21 
     name lhand
     direction 1 -4.4899e-011 9.45681e-027   
     length 0.638818   
     axis -6.0311e-015 90 90   XYZ
    dof rx rz
    limits (-90.0 90.0)
           (-45.0 45.0)
  end
  begin
     id 22 
     name lfingers
     direction 1 -4.48871e-011 1.88632e-026   
     length 0.515032   
     axis -1.20625e-014 90 90   XYZ
    dof rx
    limits (0.0 90.0)
  end
  begin
     id 23
     name lthumb
     direction 0.707107 -6.34964e-011 0.707107   
     length 0.739485   
     axis -90 45 6.32835e-014   XYZ
    dof rx rz
    limits (-45.0 45.0)
           (-45.0 45.0)
  end
  begin
     id 24 
     name rclavicle
     direction -0.949427 0.303202 0.0815894   
     length 3.76167  
     axis 0 0 0   XYZ 
    dof ry rz
    limits (-10.0 20.0)
           (-20.0 0.0)
  end
  begin
     id 25 
     name rhumerus
     direction -1 -4.48971e-011 -6.43969e-018  
     length 4.88702   
     axis 180 30 90   XYZ
    dof rx ry rz
    limits (-90.0 60.0)
           (-90.0 90.0)
           (-90.0 90.0)
  end
  begin
     id 26 
     name rradius
     direction -1 -4.48987e-011 5.46662e-027   
     length 3.22603   
     axis 180 30 90   XYZ
    dof rx
    limits (-10.0 170.0)
  end
  begin
     id 27 
     name rwrist
     direction -1 -4.48956e-011 4.72476e-027   
     length 1.61302   
     axis -2.72261e-015 -90 -90   XYZ
    dof ry
    limits (-180.0 0.0)
  end
  begin
     id 28
     name rhand
     direction -1 -4.4889e-011 9.43571e-027   
     length 0.716293   
     axis -6.0311e-015 -90 -90   XYZ
    dof rx rz
    limits (-90.0 90.0)
           (-45.0 45.0)
  end
  begin
     id 29
     name rfingers
     direction -1 -4.48887e-011 1.88701e-026   
     length 0.577494   
     axis -1.20625e-014 -90 -90   XYZ
    dof rx
    limits (0.0 90.0)
  end
  begin
     id 30
     name rthumb
     direction -0.707107 -6.34825e-011 0.707107   
     length 0.829169   
     axis -90 -45 -6.32835e-014   XYZ
    dof rx rz
    limits (-45.0 45.0)
           (-45.0 45.0)
  end
:hierarchy
  begin
    root lhipjoint rhipjoint lowerback
    lhipjoint lfemur
    lfemur ltibia
    ltibia lfoot
    lfoot ltoes
    rhipjoint rfemur
    rfemur rtibia
    rtibia rfoot
    rfoot rtoes
    lowerback upperback
    upperback thorax
    thorax lowerneck lclavicle rclavicle
    lowerneck upperneck
    upperneck head
    lclavicle lhumerus
    lhumerus lradius
    lradius lwrist
    lwrist lhand lthumb
    lhand lfingers
    rclavicle rhumerus
    rhumerus rradius
    rradius rwrist
    rwrist rhand rthumb
    rhand rfingers
  end

#!OML:ASF F:\VICON\USERDATA\INSTALL\rory3\rory3.ASF
:FULLY-SPECIFIED
:DEGREES
211
root 1.13963 18.5342 0.482091 168.548 86.3526 156.593
lowerback -9.93401 -0.556771 -0.577075
upperback -2.79118 -0.554915 -0.976409
thorax 2.66382 -0.237394 -0.75063
lowerneck -22.6103 -0.845476 1.93343
upperneck 26.4213 -1.65624 -0.0921651
head 12.5161 -0.446292 -0.623031
rclavicle -4.01297e-015 -7.95139e-015
rhumerus 2.35741 73.1362 -65.2539
rradius 78.8358
rwrist -7.22027
rhand 12.9825 5.90217
rfingers 7.12502
rthumb 37.9494 -19.9108
lclavicle -4.01297e-015 -7.95139e-015
lhumerus -13.0142 -55.7105 74.8218
lradius 90.8301
lwrist 26.7005
lhand 3.7155 40.0926
lfingers 7.12502
lthumb 29.144 67.8315
rfemur -5.57643 -9.49163 16.8109
rtibia 9.54166e-015
rfoot -5.09302 6.06598
rtoes -11.3921
lfemur -15.5013 7.47668 -18.232
ltibia 16.4027
lfoot -11.7085 -7.1319
ltoes -26.5984
212
root 1.14697 18.5352 0.474641 168.736 86.474 156.737
lowerback -9.94086 -0.525317 -0.514934
upperback -2.88767 -0.518848 -0.929299
thorax 2.56775 -0.218054 -0.731929
lowerneck -22.5422 -0.83392 1.92618
upperneck 26.33 -1.61853 -0.150233
head 12.4657 -0.440824 -0.6367
rclavicle 3.57812e-015 9.14409e-015
rhumerus 2.00389 72.2419 -65.9059
rradius 80.4495
rwrist -9.22477
rhand 12.9155 6.04468
rfingers 7.12502
rthumb 37.8861 -19.7855
lclavicle 3.57812e-015 9.14409e-015
lhumerus -13.7332 -53.3983 76.2819
lradius 92.3088
lwrist 27.3334
lhand 5.48831 39.3957
lfingers 7.12502
lthumb 30.8356 66.8284
rfemur -5.62661 -9.37908 16.8408
rtibia -1.66979e-014
rfoot -5.12983 6.03925
rtoes -11.7354
lfemur -15.518 7.46727 -18.2125
ltibia 16.3998
lfoot -11.7715 -6.99968
ltoes -26.7348
213
root 1.1581 18.5356 0.46332 168.584 86.5783 156.525
lowerback -10.0135 -0.488419 -0.401581
upperback -2.97621 -0.477514 -0.93174
thorax 2.51531 -0.195848 -0.793414
lowerneck -22.4788 -0.816143 1.94463
upperneck 26.2932 -1.59525 -0.159073
head 12.4384 -0.430507 -0.638544
rclavicle 2.8917e-015 -3.08116e-015
rhumerus 1.37829 71.2021 -66.8328
rradius 82.0704
rwrist -11.2323
rhand 12.9923 6.13163
rfingers 7.12502
rthumb 37.9586 -19.6788
lclavicle 2.8917e-015 -3.08116e-015
lhumerus -14.3552 -51.1387 77.5479
lradius 93.9567
lwrist 28.0912
lhand 6.57533 39.3039
lfingers 7.12502
lthumb 31.8714 66.5355
rfemur -5.68438 -9.28422 16.8212
rtibia -6.36111e-015
rfoot -5.11128 6.04176
rtoes -11.6619
lfemur -15.5104 7.41057 -18.2299
ltibia 16.3672
lfoot -11.8104 -6.81841
ltoes -26.6491
214
root 1.17595 18.5349 0.451364 168.228 86.6551 156.066
lowerback -10.2844 -0.47128 -0.342303
upperback -3.0101 -0.455477 -0.918412
thorax 2.62905 -0.183266 -0.812465
lowerneck -22.397 -0.804621 1.96373
upperneck 26.1976 -1.5727 -0.198276
head 12.3837 -0.426306 -0.65186
rclavicle 6.74004e-016 -3.47873e-015
rhumerus 0.99444 70.1408 -67.5087
rradius 83.6712
rwrist -13.3588
rhand 13.0658 6.192
rfingers 7.12502
rthumb 38.0281 -19.5996
lclavicle 6.74004e-016 -3.47873e-015
lhumerus -14.6678 -49.1549 78.5989
lradius 95.8112
lwrist 29.4238
lhand 5.70817 39.8704
lfingers 7.12502
lthumb 31.0452 67.2632
rfemur -5.76388 -9.21794 16.7824
rtibia -2.46493e-014
rfoot -5.11221 6.07789
rtoes -11.7418
lfemur -15.5399 7.42647 -18.2867
ltibia 16.3604
lfoot -11.8338 -6.73224
ltoes -26.8235
215
root 1.18919 18.5349 0.44307 166.898 86.6417 154.653
lowerback -10.4531 -0.487247 -0.43329
upperback -3.06164 -0.463379 -0.896609
thorax 2.6692 -0.185837 -0.740779
lowerneck -22.3475 -0.802867 1.92811
upperneck 26.1011 -1.5559 -0.203636
head 12.3359 -0.425712 -0.644342
rclavicle -5.7337e-015 -3.47873e-015
rhumerus 0.760916 69.0463 -67.9455
rradius 85.284
rwrist -15.3244
rhand 12.9308 5.92755
rfingers 7.12502
rthumb 37.9005 -19.8987
lclavicle -5.7337e-015 -3.47873e-015
lhumerus -14.7687 -47.3257 79.5053
lradius 97.5936
lwrist 30.7589
lhand 5.02492 40.516
lfingers 7.12502
lthumb 30.3937 68.0313
rfemur -5.80285 -9.22629 16.6698
rtibia 7.15625e-015
rfoot -5.14328 6.05221
rtoes -11.5171
lfemur -15.5619 7.45255 -18.417
ltibia 16.3376
lfoot -11.8048 -6.75634
ltoes -26.8016
216
root 1.19759 18.5341 0.437779 167.343 86.5869 155.1
lowerback -10.4993 -0.508077 -0.424656
upperback -3.07307 -0.49155 -0.874275
thorax 2.68257 -0.199484 -0.726372
lowerneck -22.392 -0.815639 1.78468
upperneck 26.0237 -1.57628 -0.0368104
head 12.3172 -0.428514 -0.56046
rclavicle 6.02566e-015 1.68967e-015
rhumerus 0.778589 67.7105 -68.1912
rradius 86.8569
rwrist -16.6738
rhand 13.9308 6.07359
rfingers 7.12502
rthumb 38.8443 -19.4908
lclavicle 6.02566e-015 1.68967e-015
lhumerus -14.8263 -45.347 80.2815
lradius 99.1239
lwrist 31.7937
lhand 5.4563 40.872
lfingers 7.12502
lthumb 30.8051 68.3104
rfemur -5.75795 -9.28843 16.6717
rtibia -1.19271e-014
rfoot -5.16276 6.03088
rtoes -11.6387
lfemur -15.5234 7.4335 -18.4177
ltibia 16.3161
lfoot -11.8539 -6.80199
ltoes -26.7529
217
root 1.20827 18.5337 0.429917 166.964 86.5144 154.734
lowerback -10.55 -0.517796 -0.403758
upperback -3.08681 -0.504 -0.903876
thorax 2.6956 -0.205145 -0.770759
lowerneck -22.3596 -0.835949 1.72473
upperneck 25.8831 -1.61532 0.0617512
head 12.2565 -0.441837 -0.51898
rclavicle -3.34207e-015 9.93923e-017
rhumerus 0.751048 66.2924 -68.4999
rradius 88.4032
rwrist -17.9765
rhand 16.503 7.23503
rfingers 7.12502
rthumb 41.2645 -17.5967
lclavicle -3.34207e-015 9.93923e-017
lhumerus -15.0999 -43.2416 81.1499
lradius 100.752
lwrist 32.8281
lhand 5.08175 41.0039
lfingers 7.12502
lthumb 30.4479 68.5091
rfemur -5.6941 -9.36107 16.5937
rtibia -1.11319e-014
rfoot -5.15874 6.07411
rtoes -11.5999
lfemur -15.4571 7.53614 -18.5023
ltibia 16.2753
lfoot -11.8376 -6.95484
ltoes -26.9599
218
root 1.21808 18.5309 0.421971 166.836 86.5635 154.681
lowerback -10.5429 -0.467371 -0.330299
upperback -3.07883 -0.444383 -0.926727
thorax 2.6998 -0.175549 -0.828253
lowerneck -22.4419 -0.869166 1.73047
upperneck 25.9054 -1.67467 0.0830769
head 12.2813 -0.464372 -0.52255
rclavicle 2.5345e-015 2.20651e-014
rhumerus 0.629177 64.8649 -68.8403
rradius 89.9537
rwrist -19.421
rhand 15.8159 6.49988
rfingers 7.12502
rthumb 40.6191 -18.5364
lclavicle 2.5345e-015 2.20651e-014
lhumerus -15.1372 -41.3161 81.8563
lradius 102.366
lwrist 33.9499
lhand 3.02403 41.0615
lfingers 7.12502
lthumb 28.4835 68.9129
rfemur -5.57734 -9.31493 16.557
rtibia 1.82882e-014
rfoot -5.21405 6.11547
rtoes -11.4874
lfemur -15.3232 7.59921 -18.4989
ltibia 16.2507
lfoot -11.8398 -7.00238
ltoes -26.6118
219
root 1.2252 18.531 0.415259 164.892 86.6451 152.785
lowerback -10.5072 -0.395446 -0.345901
upperback -3.11886 -0.344145 -0.993467
thorax 2.63947 -0.125195 -0.875508
lowerneck -22.3418 -0.900966 1.74603
upperneck 25.8197 -1.74664 0.161203
head 12.2279 -0.485521 -0.506606
rclavicle -5.07522e-015 3.97569e-015
rhumerus 0.30918 63.3957 -69.34
rradius 91.405
rwrist -20.5907
rhand 15.5284 6.78195
rfingers 7.12502
rthumb 40.3488 -18.3379
lclavicle -5.07522e-015 3.97569e-015
lhumerus -15.0275 -39.4152 82.4316
lradius 103.676
lwrist 34.7202
lhand 2.01388 41.0647
lfingers 7.12502
lthumb 27.5179 69.0737
rfemur -5.51327 -9.21195 16.4247
rtibia 1.43125e-014
rfoot -5.20667 6.12071
rtoes -11.5847
lfemur -15.2081 7.6932 -18.604
ltibia 16.2092
lfoot -11.8697 -6.97517
ltoes -26.5575
220
root 1.2319 18.5316 0.408476 163.737 86.6903 151.636
lowerback -10.5031 -0.336752 -0.330553
upperback -3.18231 -0.264379 -1.03719
thorax 2.57211 -0.0845419 -0.919141
lowerneck -22.2637 -0.952402 1.72001
upperneck 25.798 -1.82579 0.222582
head 12.2042 -0.514869 -0.491568
rclavicle -6.40615e-015 -1.26228e-014
rhumerus -0.00369335 61.8783 -69.7925
rradius 92.8271
rwrist -21.5541
rhand 15.9506 7.55081
rfingers 7.12502
rthumb 40.7457 -17.4459
lclavicle -6.40615e-015 -1.26228e-014
lhumerus -14.8974 -37.5487 83.0223
lradius 104.959
lwrist 35.5369
lhand 2.1065 41.1341
lfingers 7.12502
lthumb 27.6064 69.1291
rfemur -5.49856 -9.15423 16.3488
rtibia -1.74931e-014
rfoot -5.20004 6.10574
rtoes -11.8347
lfemur -15.1669 7.72986 -18.6911
ltibia 16.2053
lfoot -12.0397 -6.89133
ltoes -27.3387
